<?xml version="1.0" standalone="no"?>
<!DOCTYPE svg PUBLIC "-//W3C//DTD SVG 20010904//EN"
 "http://www.w3.org/TR/2001/REC-SVG-20010904/DTD/svg10.dtd">
<svg version="1.0" xmlns="http://www.w3.org/2000/svg"
 width="226.000000pt" height="226.000000pt" viewBox="0 0 226.000000 226.000000"
 preserveAspectRatio="xMidYMid meet">
<metadata>
Created by potrace 1.14, written by Peter Selinger 2001-2017
</metadata>
<g transform="translate(0.000000,226.000000) scale(0.100000,-0.100000)"
fill="#000000" stroke="none">
<path d="M0 1130 l0 -900 1130 0 1130 0 0 900 0 900 -1130 0 -1130 0 0 -900z
m1630 525 c19 -1 46 -5 59 -9 13 -5 47 -10 75 -12 164 -13 266 -26 266 -34 0
-5 8 -6 18 -4 9 2 25 -2 35 -10 16 -12 16 -16 2 -49 -8 -20 -15 -57 -15 -82 0
-40 -4 -47 -34 -67 -31 -20 -34 -27 -40 -88 -3 -36 -7 -106 -9 -156 -2 -50 -7
-96 -11 -103 -5 -7 4 -29 21 -54 54 -80 30 -208 -56 -299 -28 -30 -71 -37 -90
-14 -7 8 -8 16 -4 18 23 10 41 65 36 112 -4 34 -2 50 8 56 20 13 29 2 23 -29
-5 -23 -2 -32 16 -41 12 -6 23 -10 24 -8 29 38 36 60 36 104 0 74 -6 85 -35
70 -17 -9 -40 -10 -72 -6 -26 4 -54 5 -61 2 -7 -2 -24 1 -37 8 -23 12 -23 14
-7 26 16 12 16 13 0 14 -21 0 -37 27 -31 51 3 10 -2 28 -11 41 -19 26 -21 55
-4 60 8 3 8 9 0 24 -11 18 -11 18 -12 -3 0 -13 -4 -23 -10 -23 -11 0 -14 63
-3 74 7 7 11 18 15 51 3 17 -3 19 -47 20 l-50 0 -9 40 c-13 63 -14 65 -34 65
-13 0 -22 -9 -25 -27 -10 -46 -20 -55 -49 -44 -16 6 -31 24 -41 50 -9 22 -26
46 -37 53 -11 7 -20 18 -20 24 0 15 31 41 55 46 11 2 19 10 18 16 -2 8 12 12
40 12 36 0 48 -5 70 -30 15 -16 33 -30 39 -30 9 0 9 3 0 12 -18 18 -15 28 8
28 14 0 20 -7 20 -21 0 -11 5 -17 10 -14 6 4 8 11 5 16 -4 5 7 9 23 9 22 0 39
-11 66 -40 20 -22 36 -47 36 -55 0 -8 8 -15 17 -15 12 0 14 3 6 11 -6 6 -8 29
-6 53 6 52 -1 58 -71 62 -139 9 -202 19 -211 34 -3 4 -18 6 -35 4 -20 -2 -33
1 -36 11 -3 8 -21 17 -40 21 -30 5 -55 36 -41 50 6 6 81 15 124 14 18 0 35 5
39 11 3 6 15 8 28 3 11 -4 37 -8 56 -9z m-32 -364 c35 -1 26 -28 -14 -41 -46
-16 -39 -23 9 -8 42 13 139 -2 102 -16 -67 -25 -68 -26 -52 -39 23 -18 5 -57
-23 -50 -18 5 -21 11 -16 34 3 16 2 29 -2 29 -4 0 -8 -10 -9 -21 -3 -33 -18
-43 -41 -28 -15 9 -20 20 -16 35 3 12 0 25 -6 29 -9 6 -9 10 1 16 9 6 -2 9
-32 9 -34 0 -51 6 -65 21 -27 30 -4 40 76 35 36 -3 75 -5 88 -5z m-94 -223
c-4 -13 -17 -39 -30 -58 -27 -41 -40 -126 -22 -148 10 -11 7 -13 -18 -10 -28
3 -29 4 -26 55 3 59 13 82 62 141 40 48 44 50 34 20z m289 -218 c3 -11 0 -20
-6 -21 -7 0 -20 -2 -31 -4 -10 -2 -28 0 -39 4 -20 8 -20 9 8 24 41 22 62 21
68 -3z m-193 -32 c0 -7 -4 -19 -9 -27 -11 -17 -25 3 -17 24 7 18 26 20 26 3z
m-21 -61 c5 -12 21 -29 35 -36 28 -15 35 -41 12 -41 -23 0 -65 42 -72 73 -8
33 13 37 25 4z m193 -54 c-4 -38 -1 -46 22 -64 15 -12 26 -30 26 -45 0 -32
-10 -30 -45 6 -58 61 -65 147 -11 147 10 0 12 -12 8 -44z"/>
<path d="M1721 1464 c0 -11 3 -14 6 -6 3 7 2 16 -1 19 -3 4 -6 -2 -5 -13z"/>
<path d="M1824 1035 c4 -11 2 -22 -6 -27 -9 -5 -4 -8 15 -8 33 0 33 4 5 32
-18 18 -20 19 -14 3z"/>
</g>
</svg>
